PathFileType	4	(X/Y/Z)	s03c0201.trc
DataRate	CameraRate	NumFrames	NumMarkers	Units	OrigDataRate	OrigDataStartFrame	OrigNumFrames
200	200	6	52	mm	200	250	2000
Frame#	Time	racr			lacr			c7			jug			rlel			rdr			llel			ldr			s2			lic			ric			lasi			rasi			rpsi			lpsi			rgt			lgt			rth1			rth2			rth3			rth4			rlfc			rmfc			rsh1			rsh2			rsh3			rsh4			rlmal			rmmal			rcal			rtoe			rmt5			rmt1			lth1			lth2			lth4			lth3			llfc			lmfc			lsh1			lsh2			lsh3			lsh4			llmal			lmmal			lcal			ltoe			lmt1			lmt5			SBIKE			LBIKE			RBIKE			
		X1	Y1	Z1	X2	Y2	Z2	X3	Y3	Z3	X4	Y4	Z4	X5	Y5	Z5	X6	Y6	Z6	X7	Y7	Z7	X8	Y8	Z8	X9	Y9	Z9	X10	Y10	Z10	X11	Y11	Z11	X12	Y12	Z12	X13	Y13	Z13	X14	Y14	Z14	X15	Y15	Z15	X16	Y16	Z16	X17	Y17	Z17	X18	Y18	Z18	X19	Y19	Z19	X20	Y20	Z20	X21	Y21	Z21	X22	Y22	Z22	X23	Y23	Z23	X24	Y24	Z24	X25	Y25	Z25	X26	Y26	Z26	X27	Y27	Z27	X28	Y28	Z28	X29	Y29	Z29	X30	Y30	Z30	X31	Y31	Z31	X32	Y32	Z32	X33	Y33	Z33	X34	Y34	Z34	X35	Y35	Z35	X36	Y36	Z36	X37	Y37	Z37	X38	Y38	Z38	X39	Y39	Z39	X40	Y40	Z40	X41	Y41	Z41	X42	Y42	Z42	X43	Y43	Z43	X44	Y44	Z44	X45	Y45	Z45	X46	Y46	Z46	X47	Y47	Z47	X48	Y48	Z48	X49	Y49	Z49	X50	Y50	Z50	X51	Y51	Z51	X52	Y52	Z52	
250	1.2500	489.103728	1452.722481	-78.834690	484.385517	1470.813457	-392.221725	401.423423	1527.044364	-234.491373	458.756283	1364.691636	-234.221603	517.677855	1178.311236	18.163773	736.426057	988.969884	-31.595154	531.943741	1202.051142	-482.427943	738.157078	979.591340	-448.109128	-90.670739	1202.938446	-256.525653	105.553079	1211.698223	-431.955229	77.553229	1236.323963	-65.644657	114.322351	1133.220773	-389.044714	96.939042	1172.435723	-107.780040	-65.106334	1255.606290	-212.036924	-54.247253	1249.902713	-294.434498	15.870292	1159.702359	-46.215397	34.314836	1096.452197	-444.179409	140.034343	1077.563383	-21.904551	228.662212	1076.328934	-16.453793	304.272008	1034.255068	-14.094253	239.075929	1109.518540	-30.339159	426.405928	973.792838	-29.461048	439.922400	960.416657	-156.880144	356.410398	824.488189	-16.501068	333.186232	740.803950	-36.224939	269.570481	679.391734	-42.519863	359.548777	730.258666	-62.494803	198.099204	567.542127	-69.847660	223.697171	583.779389	-157.331102	128.898619	525.797745	-112.917922	437.850949	506.403119	-118.174034	319.373328	494.226620	-47.469964	344.020280	509.731853	-162.409123	100.339192	951.555955	-465.735395	156.862219	885.346300	-466.128905	189.501806	901.624695	-461.256645	173.439786	798.389943	-454.870875	243.290522	688.655980	-436.342664	248.237578	680.201661	-314.080119	159.400566	535.989714	-455.857664	149.517491	453.418058	-436.089471	94.990669	380.888298	-427.357975	178.917155	445.837777	-412.191266	39.306564	266.494900	-403.017910	75.614814	279.011714	-314.113662	-29.633727	223.957978	-351.749598	278.047833	193.624551	-359.769412	186.653738	198.189442	-315.022606	155.352290	177.764362	-428.035002	-264.473174	927.909102	-247.545640	-9.229667	80.735504	-433.488896	-9.226764	80.730851	-33.044927	
251	1.2550	489.385850	1452.750535	-78.985260	484.864979	1470.824257	-391.705629	401.486239	1526.971176	-234.467616	458.966357	1364.790294	-234.218113	517.682228	1178.350075	18.379669	736.342573	989.009658	-31.638889	531.765704	1201.989728	-482.790382	738.012688	979.621307	-447.838618	-90.776552	1202.848901	-256.600331	105.397155	1211.762835	-431.966613	77.197011	1236.270494	-65.890925	114.136284	1133.689749	-388.784830	97.115040	1172.664591	-108.077070	-65.294350	1255.570487	-212.058259	-54.269086	1249.804500	-294.509311	15.950582	1159.750047	-46.352149	34.220458	1096.355039	-444.194351	140.048569	1077.625920	-21.981507	228.694437	1076.411269	-16.544216	304.269971	1034.343022	-14.200479	239.076121	1109.598450	-30.443762	426.449478	973.884866	-29.626811	439.875618	960.460840	-157.036836	356.417999	824.566970	-16.576974	333.195006	740.896230	-36.282974	269.543222	679.478147	-42.546209	359.551577	730.337585	-62.552040	198.082115	567.635787	-69.818776	223.663311	583.855376	-157.314908	128.829754	525.902688	-112.865518	437.781924	506.403378	-118.176121	319.311028	494.275176	-47.457373	343.949579	509.777075	-162.405697	100.280258	951.442080	-465.757802	156.826827	885.250743	-466.117461	189.467699	901.557356	-461.250735	173.457342	798.319517	-454.878020	243.344198	688.609133	-436.347112	248.138235	680.258896	-314.254464	159.480777	535.954921	-455.800719	149.606507	453.401053	-436.049388	95.092070	380.866047	-427.309259	178.985899	445.853787	-412.139580	39.281192	266.561993	-403.220848	75.705153	278.965074	-314.053413	-29.378785	223.867476	-351.495611	278.150807	193.582148	-359.763108	186.723844	198.157611	-314.998107	155.424686	177.747626	-428.012014	-264.427938	927.915247	-247.572899	-9.227735	80.747044	-433.472949	-9.219372	80.717168	-33.045390	
252	1.2600	489.655882	1452.785425	-79.119402	485.366159	1470.797715	-391.204263	401.563503	1526.888958	-234.361591	459.156047	1364.874351	-234.192043	517.696377	1178.360242	18.630338	736.195560	989.107631	-31.760311	531.586060	1201.903995	-483.238415	737.859964	979.637523	-447.554302	-90.873642	1202.782795	-256.609172	105.236362	1211.812540	-431.947222	76.831929	1236.113252	-66.106268	113.935756	1134.191255	-388.516974	97.375782	1172.848167	-108.472932	-65.409428	1255.539027	-212.152069	-54.321150	1249.719373	-294.613556	16.056059	1159.783486	-46.533676	34.118737	1096.242037	-444.238821	140.033828	1077.741998	-22.065014	228.696739	1076.518547	-16.629114	304.289802	1034.452203	-14.324931	239.083348	1109.681600	-30.572204	426.695356	973.837176	-30.203581	439.817827	960.487795	-157.203856	356.452144	824.644949	-16.670350	333.168527	740.987609	-36.363744	269.530839	679.564791	-42.582549	359.543548	730.413798	-62.636820	198.045925	567.709202	-69.811889	223.612962	583.928234	-157.309240	128.791597	525.999489	-112.865685	437.727073	506.416758	-118.182634	319.264666	494.320869	-47.435740	343.894113	509.809719	-162.398834	100.203884	951.294810	-465.781326	156.788559	885.152316	-466.138957	189.437421	901.486238	-461.268768	173.460536	798.237729	-454.869938	243.423822	688.576203	-436.310379	248.179141	680.244750	-314.219768	159.566267	535.950130	-455.771981	149.692044	453.415798	-435.991313	95.188368	380.879506	-427.227151	179.053885	445.854618	-412.060700	39.547867	266.454933	-402.909915	75.792584	278.951337	-313.971951	-29.422494	223.919692	-351.630911	278.229022	193.520338	-359.777022	186.790291	198.129490	-314.973383	155.505172	177.715028	-427.998396	-264.438470	927.912222	-247.520008	-9.245749	80.731122	-433.482095	-9.224575	80.715995	-33.045084	
253	1.2650	489.994911	1452.860309	-79.243160	485.744353	1470.723655	-390.691039	401.649490	1526.765884	-234.266802	459.396378	1364.936795	-234.133937	517.771736	1178.380577	18.902318	736.321862	989.082507	-31.462127	531.427228	1201.874940	-483.681512	737.740808	979.653102	-447.298091	-90.961012	1202.726733	-256.711830	105.044599	1211.889358	-431.926077	76.606272	1235.992981	-66.258076	113.697047	1134.639546	-388.083953	97.568367	1173.079490	-108.899385	-65.550211	1255.448554	-212.269346	-54.058052	1249.483676	-294.807499	16.166452	1159.900011	-46.737509	34.034003	1096.126983	-444.296615	140.057771	1077.864918	-22.180466	228.719277	1076.633022	-16.747456	304.309346	1034.570441	-14.495377	239.095491	1109.782131	-30.727214	426.693592	973.976914	-30.371941	439.770975	960.524870	-157.364218	356.476831	824.717350	-16.799797	333.178907	741.042098	-36.447816	269.553044	679.659986	-42.617973	359.559195	730.477509	-62.752816	198.045623	567.808522	-69.817955	223.583699	583.986613	-157.313476	128.762107	526.109353	-112.849112	437.687779	506.404344	-118.198113	319.234418	494.362268	-47.425231	343.837686	509.830969	-162.401597	100.115029	951.157855	-465.804852	156.739603	885.039667	-466.152478	189.368965	901.361736	-461.300269	173.472850	798.152445	-454.880516	243.494191	688.550981	-436.320603	248.214893	680.233474	-314.193125	159.664337	535.957448	-455.739961	149.767476	453.453368	-435.925332	95.293622	380.884037	-427.151361	179.137321	445.881483	-411.989722	39.640484	266.465036	-402.840010	75.960829	278.899738	-313.934184	-29.342209	223.977934	-351.534647	278.309752	193.455684	-359.750625	186.852356	198.106174	-314.948951	155.566705	177.704087	-427.973776	-264.414064	927.889986	-247.489893	-9.246870	80.743737	-433.479644	-9.221699	80.727632	-33.041677	
254	1.2700	490.380694	1452.907395	-79.296911	486.270194	1470.605061	-390.174821	401.785704	1526.622099	-234.150126	459.633593	1364.996804	-234.025848	517.865595	1178.390430	19.242059	736.379788	989.140304	-31.233024	531.291903	1201.895779	-484.096182	737.663536	979.713978	-447.024331	-91.059450	1202.689491	-256.778783	104.908241	1211.986246	-431.947194	76.473314	1235.901707	-66.368287	113.508092	1135.136755	-387.655410	97.848162	1173.306377	-109.429761	-65.675602	1255.441967	-212.399914	-54.113035	1249.423735	-294.955697	16.313680	1159.988455	-46.958390	33.887023	1095.967383	-444.369514	140.078623	1077.994978	-22.320657	228.766736	1076.755872	-16.921580	304.340585	1034.692626	-14.693173	239.077731	1109.921139	-30.928094	426.691513	974.134812	-30.544123	439.693961	960.570553	-157.598144	356.483108	824.819248	-16.902195	333.199513	741.122177	-36.562537	269.568597	679.729072	-42.700699	359.532649	730.556307	-62.859202	198.024483	567.890935	-69.799510	223.576306	584.028630	-157.359259	128.752135	526.181785	-112.834977	437.669951	506.383221	-118.215166	319.213989	494.373095	-47.417981	343.821942	509.830708	-162.395716	100.032099	951.007775	-465.836891	156.684564	884.948082	-466.197800	189.300962	901.288697	-461.354988	173.467874	798.053721	-454.900939	243.605807	688.544158	-436.343440	248.240242	680.229957	-314.189987	159.765046	535.974754	-455.711004	149.852487	453.490458	-435.849991	95.359480	380.925473	-427.058019	179.228558	445.934592	-411.931171	39.716031	266.504098	-402.749809	76.067526	278.960036	-313.816036	-29.260800	224.021923	-351.432460	278.050989	193.453399	-360.133499	186.909854	198.088301	-314.924938	155.611943	177.723629	-427.912917	-256.614751	927.198178	-239.336377	-9.224522	80.731339	-433.479673	-9.219532	80.726672	-33.035418	
255	1.2750	490.816759	1452.990531	-79.295996	486.711156	1470.524210	-389.721074	401.910675	1526.483101	-233.947938	459.871242	1364.959357	-233.874355	517.951571	1178.383358	19.620277	736.450461	989.167060	-30.943026	531.229055	1201.926626	-484.379900	737.637727	979.776894	-446.755299	-91.176104	1202.610773	-256.924092	104.775778	1212.102126	-431.926102	76.379007	1235.823169	-66.472964	113.318208	1135.529243	-387.175536	98.062082	1173.516503	-109.915978	-65.793177	1255.451510	-212.511749	-54.199905	1249.374165	-295.120990	16.451646	1160.105320	-47.214793	33.728929	1095.800582	-444.393069	140.050754	1078.172816	-22.470694	228.776099	1076.928717	-17.119203	304.346882	1034.852499	-14.911660	239.077791	1110.048589	-31.189282	426.656211	974.161880	-30.753368	439.629656	960.590098	-157.858719	356.513413	824.937701	-17.084885	333.194769	741.191782	-36.698602	269.587425	679.798634	-42.776872	359.535571	730.615804	-63.000279	198.066027	567.940708	-69.820115	223.612499	584.063161	-157.369494	128.771788	526.237536	-112.839688	437.695037	506.358490	-118.229050	319.239266	494.392277	-47.403437	343.842799	509.826614	-162.416850	99.908965	950.842636	-465.883181	156.626772	884.805286	-466.243443	189.232315	901.202942	-461.404234	173.489189	797.941119	-454.940864	243.723777	688.539724	-436.397952	248.248517	680.262660	-314.208023	159.863739	536.019593	-455.689311	149.934880	453.548667	-435.790924	95.435450	380.979019	-426.944979	179.314043	445.972335	-411.850163	39.785302	266.606383	-402.648686	76.185052	278.986222	-313.700895	-29.200588	224.147937	-351.296165	278.108716	193.361660	-360.094930	186.963218	198.075816	-314.900828	155.625960	177.752551	-427.869001	-264.465127	927.887456	-247.624720	-9.233112	80.733268	-433.481852	-9.217922	80.726809	-33.030282	
